<svg width="150" height="44" viewBox="0 0 150 44" fill="none" xmlns="http://www.w3.org/2000/svg">
<path d="M8.88246 2.46549L0.294158 7.46853C0.112023 7.57463 0 7.76954 0 7.98032V37.2006C0 37.3992 0.0994763 37.5845 0.264938 37.6942L8.85324 43.3899C9.24694 43.651 9.77289 43.3687 9.77289 42.8963V2.97728C9.77289 2.52031 9.27732 2.23547 8.88246 2.46549Z" fill="#0000FF"/>
<path d="M11.6347 17.696L20.223 14.9878C20.4696 14.91 20.6372 14.6814 20.6372 14.4229L20.6372 5.70248C20.6372 5.44902 20.4759 5.22365 20.236 5.14186L11.6477 2.21403C11.2635 2.08304 10.8643 2.36867 10.8643 2.77465L10.8643 17.1311C10.8643 17.5314 11.253 17.8164 11.6347 17.696Z" fill="#0000FF"/>
<path d="M11.6664 30.4628L20.2547 27.2096C20.4849 27.1224 20.6372 26.9019 20.6372 26.6557L20.6372 17.0537C20.6372 16.6563 20.2535 16.3716 19.8731 16.4869L11.2849 19.0894C11.0351 19.1651 10.8643 19.3953 10.8643 19.6562L10.8643 29.9089C10.8643 30.3233 11.2789 30.6096 11.6664 30.4628Z" fill="#0000FF"/>
<path d="M44.8598 5.55577C48.2489 5.55577 50.8157 8.02288 50.8157 11.3373C50.8157 14.6268 48.2738 17.0939 44.8598 17.0939H41.2712V23H38.4303V5.55577H44.8598ZM44.7352 14.3776C46.6042 14.3776 47.9 13.0817 47.9 11.3373C47.9 9.56794 46.6042 8.27209 44.7352 8.27209H41.2712V14.3776H44.7352ZM59.9673 9.46826H61.1635V12.0849H59.6932C57.4005 12.0849 56.2791 13.4057 56.2791 15.8479V23H53.5129V9.54302H55.382L55.8305 11.3871C56.8024 10.1162 58.1232 9.46826 59.9673 9.46826ZM74.2194 9.54302H76.3376V23H74.1197L73.8456 21.3802C72.6245 22.6013 70.9299 23.3489 68.9612 23.3489C64.949 23.3489 61.9586 20.3086 61.9586 16.2715C61.9586 12.2344 64.949 9.21906 68.9612 9.21906C70.9548 9.21906 72.6743 9.96667 73.8954 11.2376L74.2194 9.54302ZM69.1855 20.6824C71.7274 20.6824 73.5715 18.8134 73.5715 16.2715C73.5715 13.7296 71.7274 11.8606 69.1855 11.8606C66.6436 11.8606 64.7746 13.7546 64.7746 16.2715C64.7746 18.7885 66.6436 20.6824 69.1855 20.6824ZM86.288 20.508H87.8331V23H85.7647C82.8241 23 81.0049 21.1808 81.0049 18.2153V11.9354H78.5877V11.3871L83.2727 6.40306H83.7462V9.54302H87.7583V11.9354H83.7711V17.991C83.7711 19.6108 84.6682 20.508 86.288 20.508ZM90.4786 7.47464V4.6088H93.3195V7.47464H90.4786ZM90.5284 23V9.54302H93.2946V23H90.5284ZM101.682 23.3489C98.417 23.3489 96.2739 21.5297 96.1991 18.7386H98.8905C98.9653 20.1591 100.161 20.9067 101.781 20.9067C103.277 20.9067 104.423 20.2837 104.423 19.1623C104.423 17.8664 102.977 17.5923 101.333 17.3182C99.0899 16.9194 96.4483 16.421 96.4483 13.306C96.4483 10.8887 98.5167 9.21906 101.657 9.21906C104.772 9.21906 106.815 10.9386 106.865 13.5303H104.248C104.199 12.2593 103.202 11.5616 101.582 11.5616C100.062 11.5616 99.1148 12.2344 99.1148 13.2063C99.1148 14.4025 100.485 14.6268 102.105 14.9009C104.373 15.2747 107.139 15.7233 107.139 19.0377C107.139 21.6543 104.971 23.3489 101.682 23.3489ZM116.573 9.46826H117.77V12.0849H116.299C114.007 12.0849 112.885 13.4057 112.885 15.8479V23H110.119V9.54302H111.988L112.437 11.3871C113.409 10.1162 114.729 9.46826 116.573 9.46826ZM125.833 23.3489C122.12 23.3489 119.702 20.9565 119.702 17.3182V9.54302H122.468V16.9444C122.468 19.2869 123.739 20.7073 125.833 20.7073C127.926 20.7073 129.172 19.262 129.172 16.9444V9.54302H131.938V17.3182C131.938 20.9565 129.546 23.3489 125.833 23.3489ZM141.653 20.508H143.198V23H141.13C138.189 23 136.37 21.1808 136.37 18.2153V11.9354H133.953V11.3871L138.638 6.40306H139.111V9.54302H143.123V11.9354H139.136V17.991C139.136 19.6108 140.033 20.508 141.653 20.508ZM145.844 7.47464V4.6088H148.684V7.47464H145.844ZM145.893 23V9.54302H148.66V23H145.893Z" fill="black"/>
<path d="M40.2309 42.2656V37.0168H40.963V42.2656H40.2309ZM38.3931 37.5308V36.861H42.793V37.5308H38.3931ZM48.4936 42.2656V36.861H49.2256V42.2656H48.4936ZM48.992 42.2656V41.5959H52.0914V42.2656H48.992ZM48.992 39.8203V39.1817H51.8345V39.8203H48.992ZM48.992 37.5308V36.861H52.0525V37.5308H48.992ZM60.2544 42.3435C59.865 42.3435 59.5042 42.2734 59.1719 42.1332C58.8396 41.9879 58.5489 41.788 58.2997 41.5336C58.0557 41.2792 57.8662 40.9833 57.7312 40.6458C57.5962 40.3083 57.5287 39.9475 57.5287 39.5633C57.5287 39.1739 57.5962 38.8105 57.7312 38.4731C57.8662 38.1356 58.0557 37.8423 58.2997 37.5931C58.5489 37.3387 58.837 37.1414 59.1641 37.0012C59.4964 36.8558 59.8572 36.7832 60.2466 36.7832C60.6723 36.7832 61.0461 36.8558 61.368 37.0012C61.6899 37.1466 61.9754 37.3439 62.2246 37.5931L61.7184 38.0993C61.5471 37.9072 61.3368 37.7566 61.0876 37.6476C60.8436 37.5386 60.5633 37.484 60.2466 37.484C59.961 37.484 59.6989 37.536 59.46 37.6398C59.2212 37.7384 59.0135 37.8812 58.837 38.0681C58.6605 38.255 58.5229 38.4757 58.4243 38.7301C58.3308 38.9844 58.2841 39.2622 58.2841 39.5633C58.2841 39.8644 58.3308 40.1422 58.4243 40.3966C58.5229 40.651 58.6605 40.8716 58.837 41.0585C59.0135 41.2454 59.2212 41.3908 59.46 41.4947C59.6989 41.5933 59.961 41.6426 60.2466 41.6426C60.584 41.6426 60.8774 41.5881 61.1266 41.4791C61.3758 41.3649 61.5861 41.2117 61.7574 41.0196L62.2636 41.518C62.0144 41.7776 61.721 41.9801 61.3836 42.1254C61.0513 42.2708 60.6749 42.3435 60.2544 42.3435ZM67.9912 42.2656V36.861H68.7232V42.2656H67.9912ZM71.48 42.2656V36.861H72.2121V42.2656H71.48ZM68.4896 39.8047V39.135H71.6591V39.8047H68.4896ZM78.318 42.2656V36.861H78.8319L79.05 37.7099V42.2656H78.318ZM82.056 42.2656L78.7385 37.8345L78.8319 36.861L82.1572 41.2844L82.056 42.2656ZM82.056 42.2656L81.838 41.4635V36.861H82.57V42.2656H82.056ZM91.136 42.3435C90.7519 42.3435 90.3936 42.2734 90.0614 42.1332C89.7291 41.9879 89.4384 41.788 89.1891 41.5336C88.9399 41.274 88.7453 40.9755 88.6051 40.638C88.4701 40.3006 88.4026 39.9397 88.4026 39.5555C88.4026 39.1662 88.4701 38.8053 88.6051 38.4731C88.7453 38.1356 88.9373 37.8397 89.1814 37.5853C89.4306 37.3309 89.7187 37.1336 90.0458 36.9934C90.3781 36.8532 90.7363 36.7832 91.1205 36.7832C91.5047 36.7832 91.8603 36.8532 92.1874 36.9934C92.5196 37.1336 92.8104 37.3309 93.0596 37.5853C93.3088 37.8397 93.5035 38.1356 93.6437 38.4731C93.7838 38.8105 93.8539 39.1739 93.8539 39.5633C93.8539 39.9475 93.7838 40.3083 93.6437 40.6458C93.5035 40.9833 93.3088 41.2792 93.0596 41.5336C92.8156 41.788 92.5274 41.9879 92.1952 42.1332C91.8681 42.2734 91.515 42.3435 91.136 42.3435ZM91.1205 41.6426C91.5099 41.6426 91.8499 41.5544 92.1406 41.3778C92.4366 41.1961 92.6702 40.9495 92.8415 40.638C93.0129 40.3213 93.0985 39.9605 93.0985 39.5555C93.0985 39.2544 93.0492 38.9793 92.9506 38.7301C92.8519 38.4757 92.7143 38.255 92.5378 38.0681C92.3613 37.8812 92.1536 37.7384 91.9148 37.6398C91.676 37.536 91.4112 37.484 91.1205 37.484C90.7363 37.484 90.3962 37.5723 90.1003 37.7488C89.8096 37.9253 89.5785 38.1693 89.4072 38.4809C89.2411 38.7924 89.158 39.1506 89.158 39.5555C89.158 39.8567 89.2047 40.137 89.2982 40.3966C89.3968 40.651 89.5318 40.8716 89.7031 41.0585C89.8796 41.2403 90.0873 41.383 90.3261 41.4869C90.5701 41.5907 90.8349 41.6426 91.1205 41.6426ZM99.6864 42.2656V36.861H100.418V42.2656H99.6864ZM100.185 42.2656V41.5959H103.082V42.2656H100.185ZM110.801 42.3435C110.417 42.3435 110.059 42.2734 109.726 42.1332C109.394 41.9879 109.103 41.788 108.854 41.5336C108.605 41.274 108.41 40.9755 108.27 40.638C108.135 40.3006 108.068 39.9397 108.068 39.5555C108.068 39.1662 108.135 38.8053 108.27 38.4731C108.41 38.1356 108.602 37.8397 108.846 37.5853C109.095 37.3309 109.384 37.1336 109.711 36.9934C110.043 36.8532 110.401 36.7832 110.785 36.7832C111.17 36.7832 111.525 36.8532 111.852 36.9934C112.185 37.1336 112.475 37.3309 112.724 37.5853C112.974 37.8397 113.168 38.1356 113.309 38.4731C113.449 38.8105 113.519 39.1739 113.519 39.5633C113.519 39.9475 113.449 40.3083 113.309 40.6458C113.168 40.9833 112.974 41.2792 112.724 41.5336C112.48 41.788 112.192 41.9879 111.86 42.1332C111.533 42.2734 111.18 42.3435 110.801 42.3435ZM110.785 41.6426C111.175 41.6426 111.515 41.5544 111.806 41.3778C112.101 41.1961 112.335 40.9495 112.506 40.638C112.678 40.3213 112.763 39.9605 112.763 39.5555C112.763 39.2544 112.714 38.9793 112.615 38.7301C112.517 38.4757 112.379 38.255 112.203 38.0681C112.026 37.8812 111.819 37.7384 111.58 37.6398C111.341 37.536 111.076 37.484 110.785 37.484C110.401 37.484 110.061 37.5723 109.765 37.7488C109.474 37.9253 109.243 38.1693 109.072 38.4809C108.906 38.7924 108.823 39.1506 108.823 39.5555C108.823 39.8567 108.87 40.137 108.963 40.3966C109.062 40.651 109.197 40.8716 109.368 41.0585C109.545 41.2403 109.752 41.383 109.991 41.4869C110.235 41.5907 110.5 41.6426 110.785 41.6426ZM121.842 42.3435C121.463 42.3435 121.108 42.2734 120.775 42.1332C120.448 41.9879 120.16 41.788 119.911 41.5336C119.667 41.2792 119.475 40.9833 119.335 40.6458C119.194 40.3083 119.124 39.9449 119.124 39.5555C119.124 39.1662 119.194 38.8053 119.335 38.4731C119.475 38.1356 119.67 37.8397 119.919 37.5853C120.168 37.3309 120.459 37.1336 120.791 36.9934C121.128 36.8532 121.494 36.7832 121.889 36.7832C122.32 36.7832 122.717 36.8662 123.08 37.0324C123.444 37.1985 123.748 37.4373 123.992 37.7488L123.485 38.255C123.314 38.0058 123.088 37.8163 122.808 37.6865C122.528 37.5515 122.221 37.484 121.889 37.484C121.494 37.484 121.144 37.5723 120.838 37.7488C120.537 37.9253 120.3 38.1693 120.129 38.4809C119.963 38.7924 119.88 39.1506 119.88 39.5555C119.88 39.9657 119.965 40.3265 120.137 40.638C120.308 40.9495 120.539 41.1935 120.83 41.3701C121.121 41.5466 121.453 41.6348 121.827 41.6348C122.206 41.6348 122.533 41.5621 122.808 41.4168C123.088 41.2714 123.304 41.0585 123.454 40.7782C123.605 40.4926 123.68 40.1448 123.68 39.7347L124.124 40.0539H121.788V39.3842H124.436V39.4932C124.436 40.1214 124.324 40.6484 124.101 41.0741C123.883 41.4947 123.576 41.8113 123.182 42.0242C122.792 42.2371 122.346 42.3435 121.842 42.3435ZM130.248 42.2656V36.861H130.981V42.2656H130.248ZM137.085 42.2656V36.861H137.817V42.2656H137.085ZM137.583 42.2656V41.5959H140.682V42.2656H137.583ZM137.583 39.8203V39.1817H140.425V39.8203H137.583ZM137.583 37.5308V36.861H140.643V37.5308H137.583ZM147.872 42.3435C147.447 42.3435 147.083 42.2656 146.782 42.1099C146.481 41.9541 146.214 41.7283 145.98 41.4324L146.478 40.9339C146.65 41.1728 146.847 41.3545 147.07 41.4791C147.294 41.5985 147.569 41.6582 147.896 41.6582C148.218 41.6582 148.475 41.5881 148.667 41.4479C148.864 41.3077 148.963 41.1157 148.963 40.8716C148.963 40.6692 148.916 40.5056 148.823 40.381C148.729 40.2564 148.602 40.1552 148.441 40.0773C148.285 39.9942 148.114 39.9216 147.927 39.8593C147.74 39.7918 147.553 39.7217 147.366 39.649C147.179 39.5711 147.008 39.4777 146.852 39.3686C146.697 39.2544 146.569 39.1065 146.471 38.9247C146.377 38.743 146.33 38.5146 146.33 38.2394C146.33 37.9331 146.403 37.6735 146.549 37.4607C146.699 37.2426 146.902 37.0765 147.156 36.9623C147.416 36.8429 147.706 36.7832 148.028 36.7832C148.381 36.7832 148.698 36.8532 148.978 36.9934C149.259 37.1284 149.487 37.3075 149.664 37.5308L149.165 38.0292C149.004 37.8423 148.83 37.7021 148.643 37.6086C148.462 37.5152 148.251 37.4685 148.013 37.4685C147.722 37.4685 147.491 37.5334 147.32 37.6632C147.148 37.7878 147.063 37.9643 147.063 38.1927C147.063 38.3744 147.109 38.5224 147.203 38.6366C147.301 38.7456 147.429 38.8391 147.584 38.917C147.74 38.9948 147.911 39.0675 148.098 39.135C148.29 39.1973 148.48 39.2674 148.667 39.3453C148.854 39.4232 149.025 39.5218 149.181 39.6412C149.337 39.7606 149.461 39.9164 149.555 40.1085C149.653 40.2954 149.703 40.5316 149.703 40.8171C149.703 41.2948 149.536 41.6686 149.204 41.9385C148.877 42.2085 148.433 42.3435 147.872 42.3435Z" fill="black" fill-opacity="0.6"/>
</svg>
